<?xml version="1.0" encoding="UTF-8"?>
<svg version="1.1" viewBox="0 0 1600 757" width="1280" height="1280" xmlns="http://www.w3.org/2000/svg">
<path transform="translate(0)" d="m0 0h1600v757h-1600z" fill="#FCFDFD"/>
<path transform="translate(794,90)" d="m0 0h37l38 4 36 6 32 8 36 12 30 12 32 15 22 12 18 10 28 17 33 22 16 11 54 39 18 14 18 13 51 36 20 14 17 12 26 15 25 13 29 13 33 13 31 10 32 8 26 5 29 4v2l-14 3-14 4-6 1-27 1-27-2-28-4-23-5-27-8-29-10-33-14-29-14-22-11-23-11-48-24-19-10-28-15-41-21-19-10-32-16-28-13-38-16-5-1 2 6 9 16 8 19 13 40 7 26 3 17 2 22v22l-3 28-5 24-11 36-9 26-10 22-12 20-4 6 16-6 29-12 31-15 22-12 18-10 26-16 21-14 23-16 18-13 17-14 7-5 2 1-10 14-10 13-12 16-11 14-13 16-10 11-7 8-9 10-27 27-8 7-15 14-14 11-16 12-18 13-21 13-21 12-27 13-27 11-30 10-24 6-26 5-25 3-31 2-32-1-39-4-32-6-32-8-36-12-20-8-35-16-20-10-23-13-20-12-24-15-20-14-16-11-18-13-19-14-18-13-20-15-54-39-16-12-15-10-17-11-22-13-28-15-31-14-37-14-28-9-33-8-30-5-19-2-3-2 21-7 11-2 15-1h29l27 3 28 5 30 8 26 9 31 13 30 14 40 20 23 11 32 16 42 22 22 12 35 18 22 11 19 10 34 16 43 18h2l-2-5-7-11-8-20-10-27-10-34-5-24-3-27v-19l3-27 6-29 6-20 12-36 5-12 11-21 9-14 3-5-17 6-35 15-27 13-22 12-29 17-23 15-27 18-18 13-16 12-13 11-4 1 7-11 12-15 13-18 10-13 12-14 9-11 18-20 16-17 13-12 10-9 11-9 13-11 17-13 18-13 18-11 15-9 26-14 20-9 24-9 36-11 26-6 35-5z" fill="#0564A5"/>
<path transform="translate(788,194)" d="m0 0h37l27 4 24 7 21 9 16 9 17 12 10 9 8 7 8 8 11 14 12 17 12 25 7 21 3 13 1 15 2 11v32l-2 14-2 18-6 21-7 17-10 19-12 17-12 14-15 15-14 11-15 10-15 8-25 10-18 5-19 3-12 1h-26l-19-2-22-5-21-7-18-8-17-10-16-12-12-11-5-4-7-8-13-17-11-18-8-16-7-19-6-29-2-20v-27l3-26 3-16 7-20 9-19 10-16 10-13 12-14 10-10 17-13 15-10 17-9 20-8 19-5 16-3z" fill="#34C0E2"/>
<path transform="translate(794,90)" d="m0 0h37l38 4 36 6 32 8 36 12 30 12 32 15 22 12 18 10 28 17 33 22 16 11 54 39 18 14 18 13 51 36 20 14 14 10-2 1-23-13-17-9-10-5-23-15-18-11-19-12-24-14-40-24-19-11-26-14-28-14-41-18-34-14-33-11-38-10-36-7-36-5-10-1h-62l-36 3-26 4-34 7-30 9-31 11-23 10-24 11-18 10-14 9-15 9-24 16-18 14-10 8-13 11-12 11-11 12-8 7-7 8-5 7-1-3-4 2-2 4-13 16-6 9-1 4-7 5-2-1 8-11 14-18 10-14 10-13 12-14 9-11 18-20 16-17 13-12 10-9 11-9 13-11 17-13 18-13 18-11 15-9 26-14 20-9 24-9 36-11 26-6 35-5z" fill="#35BEE3"/>
<path transform="translate(296,443)" d="m0 0 9 3 16 8 15 9 15 10 20 12 15 10 19 11 20 12 19 11 22 13 24 14 29 15 23 12 24 11 36 15 33 11 28 8 41 9 31 5 30 3h72l33-3 24-4 30-7 31-9 20-7 28-11 29-14 25-14 23-14 13-10 18-14 17-12 13-11 12-11 15-16 11-12 8-7 5-5 6-5h2l-2 4-15 20-14 17-9 11-13 14-7 8-28 28-8 7-15 14-14 11-16 12-18 13-21 13-21 12-27 13-27 11-30 10-24 6-26 5-25 3-31 2-32-1-39-4-32-6-32-8-36-12-20-8-35-16-20-10-23-13-20-12-24-15-20-14-16-11-18-13-19-14-18-13-20-15-54-39-16-12-15-10z" fill="#5386E5"/>
<path transform="translate(788,194)" d="m0 0h37l27 4 24 7 21 9 16 9 17 12 10 9 8 7 8 8 11 14 12 17 12 25 7 21 3 13 1 15 2 11v32l-2 14-2 18-6 21-7 17-10 19-12 17-12 14-15 15-14 11-15 10-15 8-25 10-18 5-19 3-12 1h-26l-19-2-22-5-21-7-18-8-17-10-16-12-12-11-5-4-7-8-13-17-11-18-8-16-7-19-6-29-2-20v-27l3-26 3-16 7-20 9-19 10-16 10-13 12-14 10-10 17-13 15-10 17-9 20-8 19-5 16-3zm8 20-25 4-20 6-15 6-23 12-18 13-13 12-9 9-12 16-10 16-10 22-6 20-4 19-1 8v30l3 19 6 21 8 20 9 17 10 14 9 11 20 20 17 12 19 11 15 6 20 6 22 4 9 1h19l26-4 20-5 20-8 20-11 16-12 10-9 15-15 10-13 9-15 10-21 6-18 6-26v-33l-2-17-5-21-8-22-9-17-12-17-13-15-13-13-13-10-16-10-16-8-15-6-21-6-20-3z" fill="#FCFDFD"/>
<path transform="translate(805,280)" d="m0 0h17l13 3 10 6 6 5 6 10 3 10 3 22v11l-12 2h-6l-3-5-4-22-4-11-4-6-6-3h-9l-28 4-6 4-4 5-2 5v10l4 27 2 13 86 1 8 4 9 8 4 9v87l-4 11-5 6-9 5-6 2-7 1h-105l-10-3-8-6-5-6-3-12v-78l2-11 6-9 7-6 3-1 16-1-5-29-2-10v-13l4-13 7-9 7-7 12-6 13-3z" fill="#FCFDFD"/>
<path transform="translate(636,434)" d="m0 0 9 5 4 4 7 4h3l15-1 24-2h10l5-2 6-2 5 2 1-8h1l1 43 3 12 7 8 10 5 5 1h105l11-2 8-4 5-5 4-6 3-11 1-33h5v2l7 1 3 3 11-1 7-3 13 1h20v2l5-3h7l1-3 7-2 2-1-1 7-8 20-11 21-10 14-12 13-14 14-16 12-21 12-19 8-18 5-23 4-8 1h-19l-22-3-20-5-17-6-16-8-16-10-13-10-10-9-7-8-8-9-10-14-9-16-8-18-5-15z" fill="#5386E5"/>
<path transform="translate(794,90)" d="m0 0h37l38 4 36 6 32 8 13 4v2h-3l5 5 8 5 20 4 6 2 2 7-1 4h-18l-5-2-7 1-22-1h-32l-6 1-11-1-20-1-32-3-27-1-44 3-48 8-36 7-6 1-11 2-4 2-8-1-7-1 1-2-3-2 3-1v-2l2-2-5-3-3-2 8-5 4-4 6-5 7-2 10-4 7-1v-2h-2l-1-3 7-1 6-3 1-2 28-8 24-5 29-4z" fill="#20E2D9"/>
<path transform="translate(796,214)" d="m0 0h25l24 4 20 6 21 9 14 8-1 4h2l-3 9-8 4-8 1-22 1-4 2h-5l-1 3-7 1-1 1h-38l-19 3h-13v-2l-5-2h-6l-1-2-5-1v-2h-6v-2l-9-1-6-9 1-5h2l1-4 3-3 4-5 5-4 3-2 10-3 8-5z" fill="#20E2D9"/>
<path transform="translate(805,280)" d="m0 0h17l13 3 10 6 6 5 6 10 3 10 3 22v11l-12 2h-6l-3-5-4-22-4-11-4-6-6-3h-21l-13 1-14 5-13 5-5-1-2-4 7-10 8-8 12-6 13-3z" fill="#F0FEFE"/>
<path transform="translate(805,402)" d="m0 0 8 1 8 4 7 6 2 4v13l-3 5-8 6 2 24v8l-3 1h-23l-2-2v-11l1-10v-11l-7-8-3-6 1-9 4-6 7-6z" fill="#34BFE3"/>
<path transform="translate(636,434)" d="m0 0 9 5 4 4 7 4h3l15-1 24-2h10l5-2 6-2 5 2 1-8h1v39h-1l-1-7-1-3-6 2-5 5-11 2-17 2-12 1-7-3-8-7-8-11-7-9-4-1-2-6z" fill="#4C9FE4"/>
<path transform="translate(99,344)" d="m0 0h29l27 3 28 5 30 8 26 9 31 13 30 14 2 2-5-1-39-15-25-8-32-8-24-5-25-4-43-4h-29l-7 3v1h-9l-12-2 2-2 19-6 11-2z" fill="#34C0E3"/>
<path transform="translate(976,438)" d="m0 0 1 4-3 8h-3l-3 3-3 1-5 5-4 2-1 4-7 3-7-1-3-1h-14l-18 9h-6l-3-3-2-4-4-1v-7l-2-6v-12h5v2l7 1 3 3 11-1 7-3 13 1h20v2l5-3h7l1-3 7-2z" fill="#4C9EE4"/>
<path transform="translate(1318,388)" d="m0 0 10 2 18 6 14 6 18 5 24 7 28 7 27 5 16 2 38 1 11 2h11l5-3 14-1 9 1v2l-14 3-14 4-6 1-27 1-27-2-28-4-23-5-27-8-29-10-33-14-15-7z" fill="#5288E5"/>
<path transform="translate(607,183)" d="m0 0 2 1-10 8-10 7-17 8-11 8-9 2-6 4-5 4 1 2-10 4-2 1 2 2-10 7-11 8-11 7-3 1-2 2-7 4-4 4-12 7-8 5-2-1 14-13 11-9 18-14 15-11 22-14 20-12 13-8 19-10 9-3z" fill="#086CAB"/>
<path transform="translate(1025,487)" d="m0 0 1 3-9 26-10 22-12 20-4 6 3 1-10 3-15 5-4 1h-7l23-23 7-8 10-11 7-10 13-21z" fill="#5288E5"/>
<path transform="translate(653,207)" d="m0 0h3l-1 4-15 15h-2l-2 4-7 7-8 7-13 19-9 15-5 8-4 9-1-4 10-28 13-25 9-14 3-5-4-1 13-4 16-6z" fill="#38B9E3"/>
<path transform="translate(80,352)" d="m0 0h29l22 2 29 3 27 5 34 8 25 7 23 8 20 8v1h-11l-7-3-11-3-2-1v-2l-11-3-7-3-21-6-15-4-14-1-9-1-24-3-20-4-3-1-16-2-6-1h-23l-9 1v1h-6l-2-3z" fill="#096DAC"/>
<path transform="translate(815,440)" d="m0 0 3 1 2 13 1 19-3 1h-23l-2-2v-11l2-20h1v6l10 1z" fill="#4C9FE4"/>
<path transform="translate(974,222)" d="m0 0 7 1 26 10 2 2-8-1 2 6 9 16 8 19 7 21-1 3-5-10-13-22-12-17-11-13-8-10z" fill="#38B9E3"/>
<path transform="translate(596,505)" d="m0 0 3 1 6 9 9 14 10 13 9 10 9 8v2l-4-1-13-5-13-4 2-4-9-14-10-25z" fill="#4AA1E4"/>
<path transform="translate(81,350)" d="m0 0h36l46 4 31 6 25 7 38 12 12 5-3 1-33-11-32-8-24-5-25-4-43-4h-29l-7 3v1h-9l-9-1v-2l11-1 7-2z" fill="#5486E6"/>
<path transform="translate(1347,401)" d="m0 0 10 2 24 9 20 6 14 4 29 6h2v2l9 2 25 2 27 1h14l23-2-3 2-14 3-27 1-27-2-28-4-23-5-27-8-29-10-19-8z" fill="#34C0E3"/>
<path transform="translate(1198,459)" d="m0 0h2l-2 4-15 20-14 17-7 9-1-2h-2l-2 4-5 4-7 3-3 2v-4l11-12 15-16 11-12 8-7 5-5z" fill="#508BE5"/>
<path transform="translate(1219,431)" d="m0 0 2 1-10 14-10 13-7 4-3 3h-2l-2 4-5 5-8 6 2-4 4-5h2l3-9 5-5-5 2-5 6-2 5-7 6-3 3-5-1-1-2 6-5v-3l13-9 15-11 16-13z" fill="#0E70B0"/>
<path transform="translate(1426,420)" d="m0 0 11 1 10 1h31l21 2 10 2h13l17-1 6 1v2l-7 1-5 3h-11l-11-2-38-1-27-4-20-4z" fill="#0A6EAD"/>
<path transform="translate(619,537)" d="m0 0 5 5 9 10 9 8v2l-4-1-13-5-13-4 4-8 3-2z" fill="#528AE5"/>
<path transform="translate(428,311)" d="m0 0 1 4-1 3h-2l-2 8-3 3-3 5-14 11h-2l2-6 10-12 8-10 5-5z" fill="#086BAB"/>
<path transform="translate(763,136)" d="m0 0h12l13 1v1l-36 3-26 4-34 7h-3l1-3 36-7z" fill="#3CB0E3"/>
<path transform="translate(1025,487)" d="m0 0 1 3-9 26-3 7-6-1-2 1 1-4 12-20z" fill="#38B8E3"/>
<path transform="translate(1015,279)" d="m0 0 3 3 7 12 1 5h2l3 10v3l-4-1-7-11-4-16z" fill="#0D70AF"/>
<path transform="translate(635,230)" d="m0 0v3l-4 6-9 10-11 15-4 3-2-1 8-12 9-12z" fill="#096DAC"/>
<path transform="translate(1189,454)" d="m0 0 2 1-10 9-3 7-7 6-3 3-5-1-1-2 6-5v-3l13-9z" fill="#1275B5"/>
<path transform="translate(807,133)" d="m0 0 27 1 7 1v1l-49 1h-17l2-2z" fill="#34C1E3"/>
<path transform="translate(586,481)" d="m0 0h3l11 22 3 9-4-4v-2h-5l-7-19z" fill="#1275B5"/>
<path transform="translate(818,455)" d="m0 0h1l2 10v8l-3 1h-23v-2l12-1 7-3 2 1 1-5z" fill="#4F90E5"/>
<path transform="translate(1159,501)" d="m0 0h5l-2 8-1-2h-2l-2 4-5 4-6 1 1-4 10-10z" fill="#34C0E3"/>
<path transform="translate(1e3 349)" d="m0 0 1 4h2l1 16v38h-1l-1-32-2-11z" fill="#338AD0"/>
<path transform="translate(1219,431)" d="m0 0 2 1-10 14-5-1-3 2-3-1 13-11z" fill="#489CE4"/>
<path transform="translate(413,330)" d="m0 0 1 2 6-2-2 4-14 11h-2l2-6 5-6z" fill="#0F6EAF"/>
<path transform="translate(763,136)" d="m0 0h12l13 1v1l-40 3 3-3z" fill="#41A7E4"/>
<path transform="translate(414,325)" d="m0 0v3l-10 13-2 6-7 5-2-1 8-11 11-14z" fill="#469CE3"/>
<path transform="translate(73,351)" d="m0 0h7v2l-7 3v1h-9l-9-1v-2l11-1z" fill="#508DE5"/>
<path transform="translate(376,491)" d="m0 0 14 8 11 8-1 2-22-12-2-2z" fill="#4D9FE5"/>
<path transform="translate(1153,502)" d="m0 0 2 1-10 10-8 7-2-1 3-4 3-6z" fill="#096DAC"/>
<path transform="translate(609,523)" d="m0 0 3 3 6 8-1 2-1-1-2 2-5-1-1-7z" fill="#5486E6"/>
<path transform="translate(596,505)" d="m0 0 3 1 10 15-1 2-4-5-5-2-2-2-2-5z" fill="#528AE5"/>
<path transform="translate(842,337)" d="m0 0 8 8 4 2-3 2h-6l-3-5z" fill="#FCFDFD"/>
<path transform="translate(1346,396)" d="m0 0 5 1 24 8 7 2-4 1-18-5-14-6z" fill="#096DAC"/>
<path transform="translate(621,538)" d="m0 0 7 6 6 5v2l3 1 4 5v2l-4-2-12-12-4-5z" fill="#096DAC"/>
<path transform="translate(437,298)" d="m0 0v3l-3 4-1 5-5 5v-3l-4 2 6-8z" fill="#5486E6"/>
<path transform="translate(688,110)" d="m0 0 3 1-7 4h-7v2l-7 1v-2z" fill="#30C6E1"/>
<path transform="translate(612,538)" d="m0 0 8 2-2 4-5 2-3-7z" fill="#34C0E3"/>
<path transform="translate(281,390)" d="m0 0 9 1 12 6-3 1-18-7z" fill="#489CE4"/>
<path transform="translate(599,515)" d="m0 0 5 2 2 2v3h-6l-2-6z" fill="#36BEE3"/>
<path transform="translate(1153,504)" d="m0 0 2 1-8 8-2 5-3 2v-4z" fill="#46A4E4"/>
<path transform="translate(414,325)" d="m0 0v3l-9 11h-2l2-4 7-9z" fill="#4E91E5"/>
<path transform="translate(700,147)" d="m0 0 6 1v1l-14 3h-3l1-3z" fill="#40AAE4"/>
<path transform="translate(1280,321)" d="m0 0h6l11 7 1 2-5-2-13-6z" fill="#5486E6"/>
<path transform="translate(366,486)" d="m0 0 4 2 3 2v2h-7v-2h-2v-3z" fill="#34C1E3"/>
<path transform="translate(423,314)" d="m0 0v3l-7 8-3 1 2-4 6-7z" fill="#3FACE4"/>
<path transform="translate(853,221)" d="m0 0 9 2 6 2-1 2-9-2-5-2z" fill="#32C3E2"/>
<path transform="translate(997,333)" d="m0 0 1 2h2l2 11-2 3-3-13z" fill="#2585C6"/>
<path transform="translate(594,280)" d="m0 0 1 4-5 11-1-4 4-10z" fill="#3DAFE3"/>
<path transform="translate(991,244)" d="m0 0 4 4v1h-7l-2-3z" fill="#086CAB"/>
<path transform="translate(300,398)" d="m0 0 6 1 6 3v1l-8-1-4-2z" fill="#237AC1"/>
<path transform="translate(1008,521)" d="m0 0 5 1-1 3-7 1 1-4z" fill="#4C9FE4"/>
</svg>
